<svg width="19" height="22" viewBox="0 0 19 22" fill="none" xmlns="http://www.w3.org/2000/svg">
<path d="M5.74293 9.33657V5.03027C5.74566 4.11439 6.11571 3.23667 6.77236 2.58873C7.429 1.94078 8.31902 1.57512 9.24811 1.57153C10.1778 1.57423 11.0686 1.93952 11.726 2.58756C12.3834 3.23561 12.7539 4.1138 12.7567 5.03027V9.33657M17.4808 16.9688L16.4241 9.2549C16.324 8.61885 15.9935 8.04009 15.4938 7.62576C14.9942 7.21143 14.3591 6.98955 13.7063 7.00127H4.79324C4.14041 6.98955 3.50538 7.21143 3.00571 7.62576C2.50604 8.04009 2.17561 8.61885 2.07552 9.2549L1.01878 16.9688C0.9693 17.4115 1.01661 17.8595 1.15747 18.2826C1.29833 18.7058 1.52948 19.0943 1.83541 19.422C2.14133 19.7497 2.51491 20.0089 2.93101 20.1824C3.3471 20.3558 3.79607 20.4395 4.24767 20.4276H14.2623C14.7131 20.438 15.1609 20.3533 15.5757 20.1792C15.9905 20.0051 16.3628 19.7455 16.6676 19.418C16.9724 19.0905 17.2026 18.7026 17.3428 18.2801C17.4831 17.8577 17.5301 17.4106 17.4808 16.9688Z" stroke="#F8F8F8" stroke-width="1.17857" stroke-linecap="round" stroke-linejoin="round"/>
</svg>
