<?xml version="1.0" encoding="UTF-8" standalone="no"?>
<svg
   xmlns:dc="http://purl.org/dc/elements/1.1/"
   xmlns:cc="http://creativecommons.org/ns#"
   xmlns:rdf="http://www.w3.org/1999/02/22-rdf-syntax-ns#"
   xmlns:svg="http://www.w3.org/2000/svg"
   xmlns="http://www.w3.org/2000/svg"
   viewBox="0 0 50.310547 50.175781"
   height="50.175781"
   width="50.310547"
   xml:space="preserve"
   id="svg2"
   version="1.1"><metadata
     id="metadata8"><rdf:RDF><cc:Work
         rdf:about=""><dc:format>image/svg+xml</dc:format><dc:type
           rdf:resource="http://purl.org/dc/dcmitype/StillImage" /></cc:Work></rdf:RDF></metadata><defs
     id="defs6" /><g
     transform="matrix(1.3333333,0,0,-1.3333333,0,50.175781)"
     id="g10"><g
       transform="translate(1.14502,-1.151123)"
       id="g12"><path
         id="path14"
         style="fill:#e95322;fill-opacity:1;fill-rule:nonzero;stroke:none"
         d="m 19.139351,2.296127 v -1.145 c 0.01955,0 0.0391,5.03e-4 0.05863,0.0015 l -0.05863,1.143497 z m 0.960043,0.049225 v 1.144997 c -0.01955,0 -0.0391,-5e-4 -0.05863,-0.0015 z m 0.159931,0 v -1.145 c 0.02722,0 0.05442,9.69e-4 0.08157,0.00291 l -0.08157,1.142093 z m 0.516981,0.036919 v 1.145 c -0.02721,0 -0.05442,-9.69e-4 -0.08157,-0.00291 l 0.08157,-1.142093 z m 0.276896,0 V 1.237274 c 0.03601,0 0.07199,0.0017 0.107841,0.00509 z m 0.455381,0.043083 0.107842,-1.139912 c 0.0058,5.5e-4 0.01159,0.00114 0.01737,0.00178 l -0.125212,1.138134 z m 0.615387,0.067703 v 1.145001 c -0.04183,0 -0.08363,-0.00229 -0.125212,-0.00687 z m 0.147688,0 v -1.145 c 0.04852,0 0.09699,0.00308 0.145126,0.00923 l -0.145126,1.135765 z m 12.406256,9.304671 -1.116196,0.255216 c -0.0014,-0.0061 -0.0027,-0.01214 -0.004,-0.01823 l 1.120209,-0.236988 z m 0.744594,7.889286 -1.14452,0.03308 c -7.24e-4,-0.02498 -6.29e-4,-0.04998 2.87e-4,-0.07495 z m -0.695392,7.495428 1.118904,0.243072 c -0.04025,0.185238 -0.125847,0.357588 -0.249127,0.501583 z m -0.03689,0.04308 -1.11338,-0.267212 c 0.04228,-0.17618 0.12577,-0.339809 0.243606,-0.477444 z m -4.78774,7.698498 -0.628634,-0.956997 2.27e-4,-1.49e-4 z m -11.397009,2.713867 v -1.145 h 0.0018 z M 5.539279,34.924019 4.91145,35.881546 4.910872,35.881165 Z m -4.781582,-7.698498 0.80999,-0.809284 c 0.150285,0.150417 0.255717,0.339706 0.304486,0.546665 z m -0.043044,-0.04308 -0.80999,0.809284 c -0.1551,-0.155235 -0.262326,-0.351772 -0.308911,-0.566212 z m -0.695392,-7.495428 1.144281,-0.04057 c 8.7e-4,0.02454 9.5e-4,0.04911 2.41e-4,0.07366 l -1.144522,-0.03308 z m 0.744596,-7.889286 1.11976,0.239088 c -0.00106,0.005 -0.00215,0.0099 -0.00328,0.01486 z M 13.170111,2.493057 13.029176,1.356762 c 0.04675,-0.0058 0.09382,-0.0087 0.140935,-0.0087 v 1.145 z m 0.153847,0 0.125213,1.138134 c -0.04158,0.00457 -0.08338,0.00687 -0.125213,0.00687 V 2.49306 Z M 13.939346,2.425354 13.814134,1.28722 c 0.0053,-5.84e-4 0.0106,-0.00113 0.01591,-0.00164 l 0.109307,1.139771 z M 14.388568,2.382271 14.279261,1.2425 c 0.03633,-0.00348 0.07281,-0.00523 0.109307,-0.00523 v 1.144997 z m 0.283055,0 0.08158,1.14209 c -0.02715,0.00194 -0.05436,0.00291 -0.08158,0.00291 z m 0.516905,-0.036919 -0.08158,-1.142093 c 0.02715,-0.00194 0.05436,-0.00291 0.08158,-0.00291 v 1.145 z m 0.160008,0 0.05863,1.143498 c -0.01953,9.99e-4 -0.03908,0.0015 -0.05863,0.0015 z M 16.308578,2.296127 16.249949,1.15263 c 0.01953,-0.001 0.03908,-0.0015 0.05863,-0.0015 v 1.145 z m 1.390744,10.695456 0.08422,1.141899 c -0.056,0.0041 -0.112227,0.0041 -0.168225,1.5e-5 l 0.08401,-1.141914 z m 6.664631,4.203096 1.069839,-0.408039 0.0019,0.0051 -1.071746,0.402969 z m 0,5.587738 1.07175,0.40297 -0.0011,0.003 -1.070604,-0.405991 z m -6.664631,4.196934 -0.08422,-1.141899 c 0.056,-0.0041 0.112228,-0.0041 0.168228,-1.5e-5 l -0.08401,1.141914 z M 11.028455,22.782417 9.95927,23.1922 9.95671,23.1854 11.028457,22.78243 Z m 0,-5.587738 -1.071754,-0.402973 0.00145,-0.0038 1.070308,0.406776 z M 19.197979,1.15263 20.158022,1.201851 20.040764,3.48885 19.080721,3.439625 Z m 0.901415,0.047722 h 0.159931 v 2.289997 h -0.159931 z m 0.241497,0.00291 0.516981,0.036922 -0.163132,2.284183 -0.516981,-0.036922 z m 0.435415,0.034015 h 0.276896 v 2.289997 h -0.276896 z m 0.384737,0.00509 0.455382,0.043079 -0.215685,2.27982 -0.455382,-0.043084 0.215685,-2.279819 z m 0.472752,0.044853 0.615389,0.067703 -0.250426,2.276268 -0.615389,-0.067703 z m 0.490175,0.060837 h 0.147688 V 3.638058 H 22.12397 Z m 0.292814,0.00923 c 5.669382,0.724419 11.893553,3.170925 13.381335,10.203448 l -2.240414,0.473976 C 32.387009,6.501003 27.534143,4.319794 22.126532,3.628822 l 0.290252,-2.27153 z m 13.377322,10.185221 c 0.613555,2.683407 0.873291,5.435566 0.772636,8.186369 l -2.288467,-0.08374 c 0.09335,-2.551162 -0.147534,-5.103569 -0.716557,-7.592201 l 2.232388,-0.510431 z m 0.772926,8.111414 c 0.07546,2.610178 -0.16666,5.219845 -0.721012,7.771587 L 33.608215,26.93936 c 0.514954,-2.370395 0.739865,-4.794593 0.669773,-7.219267 z m -0.970139,8.27317 -0.03688,0.04308 -1.739552,-1.489314 0.03689,-0.04308 1.739551,1.489313 z m 0.206723,-0.434364 c -0.771431,3.214294 -2.293602,6.432518 -5.272717,8.388432 l -1.256815,-1.914292 c 2.288612,-1.502571 3.597262,-4.068971 4.302767,-7.008564 z m -5.272492,8.388287 c -3.6385,2.39006 -8.100181,2.908126 -12.027468,2.901863 l 0.0037,-2.289997 c 3.789684,0.006 7.697315,-0.509743 10.766548,-2.525864 l 1.257267,1.913998 z m -13.594837,2.901867 c -3.918611,0 -8.380212,-0.511643 -12.024837,-2.901341 l 1.255657,-1.915054 c 3.075418,2.016483 6.983123,2.526394 10.76918,2.526394 z M 4.910872,35.881165 C 1.933393,33.926327 0.409608,30.740456 -0.356779,27.48814 l 2.228952,-0.525238 c 0.698238,2.963112 2.005264,5.500328 4.295512,7.003971 z m -4.963165,-7.84636 -0.043044,-0.04308 1.61998,-1.618568 0.043044,0.04308 z M -0.404248,27.425514 C -0.9586,24.873772 -1.200716,22.264105 -1.125261,19.653927 l 2.289044,0.06617 c -0.070092,2.424674 0.154816,4.848872 0.669771,7.219267 l -2.237802,0.486149 z M -1.12502,19.727583 c -0.097496,-2.749849 0.162117,-5.500742 0.772394,-8.183806 l 2.232966,0.507901 c -0.566348,2.489931 -0.807277,5.042825 -0.716798,7.594764 z m 0.769117,-8.168942 C 1.144542,4.531326 7.33093,2.063522 13.029176,1.356762 l 0.281871,2.272587 C 7.895375,4.30106 3.066266,6.497894 1.883617,12.036816 Z M 13.170111,1.348057 h 0.153847 v 2.290001 h -0.153847 z m 0.02863,0.00687 0.615388,-0.067703 0.250425,2.276268 -0.615388,0.067703 z M 13.830039,1.285583 14.279261,1.2425 14.497876,3.522041 14.048655,3.565125 Z m 0.558529,-0.048309 h 0.283055 v 2.289997 h -0.283055 z m 0.201477,0.00291 0.516906,-0.036922 0.163155,2.284183 -0.516905,0.036919 z m 0.598483,-0.039829 h 0.160008 v 2.289997 h -0.160008 z m 0.101379,0.0015 0.960042,-0.049221 0.117258,2.286995 -0.960042,0.049225 z m 2.409415,11.789732 c -0.08422,-1.141899 -0.08367,-1.141939 -0.0831,-1.141981 2.15e-4,-1.6e-5 8.03e-4,-5.7e-5 0.0012,-8.8e-5 8.6e-4,-6.3e-5 0.0018,-1.3e-4 0.0028,-2e-4 0.002,-1.41e-4 0.0044,-3.02e-4 0.007,-4.75e-4 0.0053,-3.49e-4 0.01176,-7.59e-4 0.01942,-0.0012 0.01533,-8.94e-4 0.03539,-0.0019 0.05993,-0.003 0.04906,-0.0021 0.116169,-0.0041 0.19928,-0.0047 0.165985,-0.0012 0.397201,0.0032 0.677027,0.02459 0.556764,0.0425 1.322235,0.153179 2.15582,0.429417 1.686131,0.558761 3.671841,1.80995 4.69505,4.492708 l -2.139658,0.816069 c -0.71834,-1.883425 -2.064947,-2.733784 -3.275744,-3.135025 -0.614879,-0.203762 -1.189024,-0.287697 -1.609762,-0.319811 -0.208925,-0.01595 -0.375931,-0.01881 -0.485979,-0.01801 -0.05491,4.03e-4 -0.09527,0.0017 -0.119171,0.0027 -0.01194,5.06e-4 -0.01974,9.35e-4 -0.02315,0.0011 -0.0017,9.9e-5 -0.0023,1.41e-4 -0.0018,1.07e-4 2.63e-4,-1.7e-5 8.11e-4,-5.6e-5 0.0016,-1.13e-4 4.16e-4,-2.8e-5 9.04e-4,-6.5e-5 0.0015,-1.05e-4 2.78e-4,-1.9e-5 7.55e-4,-5.3e-5 8.95e-4,-6.5e-5 4.92e-4,-3.4e-5 0.001,-7.2e-5 -0.08321,-1.141971 z m 7.736377,3.800127 c 0.774844,2.060795 0.774844,4.33288 0,6.393677 l -2.143493,-0.805939 c 0.579502,-1.541258 0.579502,-3.240543 0,-4.781801 z m -0.0011,6.396698 c -1.017157,2.682255 -3.004881,3.932026 -4.692076,4.489649 -0.834266,0.275728 -1.60075,0.386125 -2.158233,0.428487 -0.280201,0.02129 -0.511746,0.0257 -0.677941,0.02447 -0.08322,-6.14e-4 -0.150402,-0.0026 -0.199501,-0.0047 -0.02456,-0.001 -0.04463,-0.0021 -0.05996,-0.003 -0.0077,-4.46e-4 -0.01414,-8.54e-4 -0.01941,-0.0012 -0.0026,-1.75e-4 -0.005,-3.31e-4 -0.007,-4.74e-4 -10e-4,-7.1e-5 -0.0019,-1.36e-4 -0.0028,-1.97e-4 -4.29e-4,-3.2e-5 -0.001,-7.4e-5 -0.0012,-9e-5 -5.65e-4,-4.2e-5 -0.0011,-8.2e-5 0.0829,-1.141996 0.08401,-1.141914 0.0835,-1.141951 0.08301,-1.141987 -1.37e-4,-9e-6 -6.1e-4,-4.4e-5 -8.88e-4,-6.3e-5 -5.57e-4,-4e-5 -0.001,-7.4e-5 -0.0015,-1.03e-4 -8.24e-4,-5.9e-5 -0.0014,-9.3e-5 -0.0016,-1.1e-4 -5.07e-4,-3.3e-5 1.16e-4,9e-6 0.0018,1.08e-4 0.0035,2.03e-4 0.01131,6.34e-4 0.02332,0.0011 0.02404,0.001 0.06458,0.0023 0.119691,0.0027 0.110463,8.16e-4 0.278006,-0.002 0.487519,-0.01795 0.42194,-0.03206 0.997381,-0.115891 1.613117,-0.319393 1.212809,-0.400837 2.557402,-1.249535 3.269485,-3.127308 l 2.141211,0.811983 z m -7.735235,3.790943 c 0.08422,1.141899 0.08367,1.141941 0.0831,1.141981 -2.14e-4,1.5e-5 -8.01e-4,5.9e-5 -0.0012,9e-5 -8.59e-4,6.1e-5 -0.0018,1.28e-4 -0.0028,1.98e-4 -0.002,1.41e-4 -0.0044,3.02e-4 -0.007,4.77e-4 -0.0053,3.47e-4 -0.01175,7.55e-4 -0.01941,0.0012 -0.01532,8.95e-4 -0.03537,0.0019 -0.05991,0.003 -0.04905,0.0021 -0.11614,0.0041 -0.199237,0.0047 -0.165963,0.0012 -0.397156,-0.0032 -0.676979,-0.02448 -0.556763,-0.04238 -1.322268,-0.152817 -2.156066,-0.428532 -1.68629,-0.557611 -3.673626,-1.806518 -4.700508,-4.485811 l 2.138327,-0.819547 c 0.720821,1.880735 2.068919,2.730297 3.281137,3.131145 0.615454,0.203514 1.189972,0.287308 1.610917,0.319349 0.209034,0.01591 0.376114,0.01876 0.486215,0.01794 0.05493,-4.08e-4 0.09532,-0.0017 0.11924,-0.0027 0.01195,-5.06e-4 0.01976,-9.37e-4 0.02317,-0.0011 0.0017,-9.9e-5 0.0023,-1.43e-4 0.0018,-1.09e-4 -2.61e-4,1.7e-5 -8.05e-4,5.5e-5 -0.0016,1.13e-4 -4.16e-4,2.8e-5 -9.02e-4,6.4e-5 -0.0015,1.03e-4 -2.81e-4,2.1e-5 -7.54e-4,5.5e-5 -8.93e-4,6.4e-5 -4.92e-4,3.7e-5 -0.001,7.3e-5 0.08322,1.141972 z M 9.956708,23.185387 c -0.774844,-2.060797 -0.774844,-4.332882 0,-6.393677 l 2.143494,0.805937 c -0.579502,1.541258 -0.579502,3.240543 0,4.781801 z m 0.00144,-6.397484 c 1.020208,-2.68438 3.008746,-3.93562 4.696859,-4.494139 0.83468,-0.276157 1.601405,-0.386785 2.159073,-0.42926 0.280287,-0.02135 0.511895,-0.02579 0.678139,-0.02457 0.08324,6.08e-4 0.150446,0.0026 0.199564,0.0047 0.02457,0.001 0.04465,0.0021 0.05998,0.003 0.0077,4.48e-4 0.01415,8.56e-4 0.01942,0.0012 0.0026,1.76e-4 0.005,3.34e-4 0.007,4.75e-4 0.001,7.1e-5 0.0019,1.38e-4 0.0028,1.99e-4 4.29e-4,3e-5 0.001,7.2e-5 0.0012,8.9e-5 5.67e-4,4e-5 0.0011,8.1e-5 -0.08289,1.141995 -0.08401,1.141914 -0.0835,1.141952 -0.08301,1.141987 1.39e-4,1.1e-5 6.12e-4,4.5e-5 8.91e-4,6.5e-5 5.59e-4,4e-5 0.001,7.4e-5 0.0015,1.03e-4 8.28e-4,5.7e-5 0.0014,9.3e-5 0.0016,1.1e-4 5.13e-4,3.5e-5 -1.09e-4,-9e-6 -0.0018,-1.09e-4 -0.0035,-2.02e-4 -0.0113,-6.31e-4 -0.0233,-0.0011 -0.02402,-10e-4 -0.06455,-0.0023 -0.119654,-0.0027 -0.110441,-8.06e-4 -0.277977,0.0021 -0.487507,0.01802 -0.421963,0.03214 -0.997566,0.116127 -1.613679,0.319969 -1.213471,0.401484 -2.560366,1.251791 -3.275553,3.133595 L 9.958147,16.787903 Z M 16.308579,1.151127 h 2.830773 v 2.290001 h -2.830773 z m 2.196904,37.63176 h -1.569195 v -2.290001 h 1.569195 z" /></g><g
       transform="translate(26.056641,27.003662)"
       id="g16"><path
         id="path18"
         style="fill:#e95322;fill-opacity:1;fill-rule:nonzero;stroke:none"
         d="M 3.692331,1.846217 C 3.692331,0.826608 2.865775,5.2e-5 1.846166,5.2e-5 0.826556,5.2e-5 0,0.826608 0,1.846217 c 0,1.019609 0.826556,1.846166 1.846166,1.846166 1.019609,0 1.846165,-0.826557 1.846165,-1.846166 z" /></g></g></svg>