<?xml version="1.0" encoding="UTF-8" standalone="no"?>
<svg
   xmlns:dc="http://purl.org/dc/elements/1.1/"
   xmlns:cc="http://creativecommons.org/ns#"
   xmlns:rdf="http://www.w3.org/1999/02/22-rdf-syntax-ns#"
   xmlns:svg="http://www.w3.org/2000/svg"
   xmlns="http://www.w3.org/2000/svg"
   viewBox="0 0 50.174805 50.174805"
   height="50.174805"
   width="50.174805"
   xml:space="preserve"
   id="svg2"
   version="1.1"><metadata
     id="metadata8"><rdf:RDF><cc:Work
         rdf:about=""><dc:format>image/svg+xml</dc:format><dc:type
           rdf:resource="http://purl.org/dc/dcmitype/StillImage" /></cc:Work></rdf:RDF></metadata><defs
     id="defs6" /><g
     transform="matrix(1.3333333,0,0,-1.3333333,0,50.174805)"
     id="g10"><g
       transform="translate(1.144287,-1.219238)"
       id="g12"><path
         id="path14"
         style="fill:#e95322;fill-opacity:1;fill-rule:nonzero;stroke:none"
         d="m 30.278019,8.250542 -0.809284,0.80999 -2.62e-4,-2.62e-4 z m -0.836369,25.205848 0.753914,0.861779 -0.0035,0.0031 -0.750391,-0.864834 z m -11.384687,4.248932 v -1.145 z M 6.672357,33.45639 5.921964,34.321224 5.920606,34.320045 Z M 3.352918,11.325214 2.381107,10.719732 c 0.00436,-0.007 0.0088,-0.01396 0.013316,-0.02087 L 3.352918,11.32521 Z M 3.301081,9.97884 4.194621,9.262871 c 0.00472,0.00589 0.00938,0.011829 0.013985,0.017813 z M 7.560564,5.706659 6.849111,6.603838 6.842479,6.598499 Z M 8.922037,5.771393 8.299027,4.810722 C 8.305902,4.806267 8.312824,4.80188 8.319794,4.797573 Z m 16.986227,8.032991 -0.853416,0.763352 c -0.09072,-0.101427 -0.162638,-0.218212 -0.212372,-0.344879 z m -0.648329,4.071499 -0.808998,-0.810284 0.0026,-0.0026 0.8064,0.81286 z m -5.562708,1.216925 0.560326,0.998529 c -0.01226,0.0069 -0.02465,0.01354 -0.03716,0.01996 l -0.523169,-1.018488 z m -2.593315,1.903063 -0.833824,-0.784705 c 0.0063,-0.0067 0.01265,-0.01329 0.0191,-0.01981 l 0.814722,0.80452 z m -1.244739,3.961471 1.024784,-0.510727 2.08e-4,4.18e-4 z m -0.868818,3.178244 -0.834214,-0.784291 c 0.01324,-0.01408 0.02683,-0.02783 0.04077,-0.04122 l 0.793446,0.825512 z m -2.593314,1.113355 -0.0055,1.144988 c -0.02278,-1.11e-4 -0.04556,-9.01e-4 -0.06829,-0.0024 l 0.07382,-1.142619 z m -1.763434,-2.187875 -1.111602,0.274528 -7e-5,-2.82e-4 z m 7.779942,-12.945992 0.595141,0.978243 -0.0097,0.0058 -0.585474,-0.983994 z m 2.528496,-1.17807 -0.366174,-1.084909 0.0089,-0.0029 0.357271,1.087833 z m 4.933771,0.796166 0.817898,-0.801291 c 0.07889,0.08053 0.145464,0.17227 0.197554,0.272251 z m 5.211487,-6.29262 c 1.784531,1.782976 3.183682,3.912754 4.110741,6.257568 l -2.129597,0.841971 C 32.256741,12.487038 31.031591,10.622025 29.468735,9.060532 Z m 4.110741,6.257568 c 0.927067,2.34483 1.362251,4.854725 1.278648,7.374325 l -2.288742,-0.07594 c 0.0732,-2.20591 -0.3078,-4.403374 -1.119503,-6.456413 z m 1.278648,7.374325 c -0.0836,2.5196 -0.684204,4.995207 -1.764656,7.2736 l -2.069134,-0.981217 c 0.94603,-1.994934 1.471856,-4.162414 1.545048,-6.368324 l 2.288742,0.07594 z m -1.764656,7.2736 c -1.080448,2.278389 -2.61771,4.311008 -4.516479,5.972118 L 28.687742,32.59462 c 1.662983,-1.454836 3.009127,-3.23485 3.95516,-5.229794 z m -4.519995,5.975181 c -3.366302,2.920853 -7.675806,4.529099 -12.135078,4.529099 v -2.290001 c 3.908283,0 7.684792,-1.409561 10.634294,-3.968765 z m -12.135078,4.529099 c -4.459276,0 -8.768699,-1.60825 -12.134999,-4.529099 l 1.500785,-1.729667 c 2.949507,2.559207 6.725937,3.968765 10.634214,3.968765 z M 5.920606,34.320045 C 2.620013,31.447102 0.451025,27.494745 -0.197589,23.170349 l 2.264668,-0.339676 c 0.567796,3.785576 2.46662,7.246161 5.357029,9.762066 z M -0.197589,23.170349 C -0.846205,18.845936 0.068,14.432322 2.381107,10.719732 L 4.32473,11.930696 C 2.2995,15.181236 1.499285,19.045113 2.067079,22.830673 Z M 2.394423,10.698866 c 0.00223,-0.0034 0.00324,-0.0072 0.0031,-0.01101 l 2.288302,-0.08815 c 0.018437,0.478597 -0.112449,0.950983 -0.374409,1.351858 l -1.91699,-1.252697 z m 0.0031,-0.01101 c -1.48e-4,-0.0039 -0.00148,-0.0076 -0.00396,-0.01086 L 4.208606,9.280684 c 0.292022,0.379596 0.458783,0.840507 0.477216,1.319021 l -2.288302,0.08815 z m 0.01002,0.007 C 1.743482,9.866053 0.600134,8.341839 -0.199936,6.811672 -0.596333,6.053547 -0.947923,5.220772 -1.084016,4.429028 -1.217246,3.653938 -1.18043,2.659676 -0.438371,1.918797 l 1.617988,1.620559 c -0.00142,0.00142 -0.00235,0.0023 -0.00465,0.00682 C 1.172117,3.551785 1.164194,3.569283 1.157121,3.605068 1.141826,3.682461 1.135245,3.822109 1.172886,4.041092 1.249933,4.48933 1.47698,5.076572 1.829405,5.750601 2.52698,7.08474 3.562022,8.473377 4.194621,9.262871 L 2.40754,10.694809 Z M -0.438371,1.918797 C 0.305734,1.175873 1.299926,1.144909 2.073405,1.284767 2.861659,1.427292 3.688182,1.786839 4.438666,2.18932 5.95369,3.001816 7.461667,4.157009 8.278648,4.814819 L 6.842479,6.598499 C 6.051605,5.96171 4.677774,4.91608 3.356371,4.20742 2.688643,3.849323 2.108299,3.618206 1.665949,3.538223 1.450085,3.499195 1.313828,3.505108 1.239757,3.519379 c -0.0341,0.00657 -0.050205,0.013954 -0.05473,0.016239 -0.00345,0.00174 -0.00392,0.00225 -0.00541,0.00374 z m 8.710367,2.890705 c 0.00356,0.00283 0.00821,0.00466 0.013274,0.0049 L 8.176517,7.101816 C 7.692974,7.078827 7.22861,6.904736 6.849131,6.603813 Z M 8.28527,4.8144 C 8.29026,4.814636 8.29506,4.8133 8.299027,4.81072 L 9.545048,6.732061 C 9.138799,6.99552 8.660129,7.124807 8.176517,7.101816 Z M 8.319794,4.797573 c 3.53751,-2.187721 7.71167,-3.117046 11.844658,-2.63726 L 19.900385,4.43504 C 16.279556,4.014706 12.622889,4.828926 9.524282,6.745213 Z m 11.844658,-2.63726 c 4.132989,0.479789 7.982509,2.340561 10.923112,5.2805 L 29.468473,9.06027 C 26.893126,6.485504 23.521214,4.85537 19.900385,4.43504 Z m 6.597227,10.880718 c 0.855007,0.955881 0.954675,2.136236 0.726036,3.130867 -0.22418,0.975231 -0.777155,1.877741 -1.421377,2.516846 l -1.612803,-1.625721 c 0.373652,-0.370684 0.686195,-0.898697 0.802387,-1.404158 0.111733,-0.486059 0.02663,-0.836561 -0.201074,-1.091129 z m -0.692749,5.645132 c -0.439404,0.438705 -1.066632,0.915115 -1.776518,1.209457 -0.698843,0.289763 -1.659882,0.471213 -2.580883,-0.0065 l 1.054348,-2.032843 c 0.07743,0.04016 0.267179,0.08244 0.649435,-0.07606 0.371212,-0.153916 0.755388,-0.434849 1.035629,-0.714646 l 1.617989,1.62056 z m -4.357401,1.202988 c -0.327204,-0.169707 -0.500191,-0.171641 -0.621939,-0.154135 -0.173464,0.02494 -0.40012,0.113949 -0.832037,0.356321 L 19.1369,18.094278 c 0.456293,-0.256048 1.001163,-0.535999 1.626778,-0.625951 0.677332,-0.09739 1.330976,0.03985 2.002199,0.387981 z m -1.491133,0.222145 c -0.85214,0.437721 -1.629082,1.007885 -2.301762,1.689094 L 16.28919,20.191351 c 0.843233,-0.853926 1.817019,-1.568508 2.884867,-2.117031 z m -2.282659,1.669279 c -0.387318,0.411564 -0.770894,0.94854 -0.984021,1.48084 -0.214706,0.53625 -0.202955,0.917941 -0.06976,1.1852 l -2.049568,1.021456 c -0.534583,-1.072651 -0.354292,-2.189459 -0.0066,-3.05785 0.349274,-0.872337 0.921958,-1.646143 1.442299,-2.199055 z m -1.053572,2.666458 c 0.880411,1.768368 -0.07885,3.532223 -1.100363,4.514063 l -1.586893,-1.651022 c 0.716004,-0.688194 0.859019,-1.397026 0.637271,-1.842423 z m -1.059595,4.472843 c -0.440181,0.468201 -0.97219,0.840727 -1.562911,1.094334 l -0.903402,-2.104273 c 0.301674,-0.129515 0.573245,-0.319704 0.797884,-0.558642 z m -1.562911,1.094334 c -0.590685,0.253591 -1.227352,0.382818 -1.870139,0.379719 l 0.01104,-2.289975 c 0.328603,0.0016 0.653981,-0.06449 0.955693,-0.194017 l 0.903402,2.104273 z m -1.938434,0.37735 C 11.306141,30.325853 10.635269,29.728764 10.230519,29.108244 9.846933,28.520168 9.64534,27.834993 9.522005,27.335594 l 2.223204,-0.549057 c 0.110063,0.44566 0.239108,0.818819 0.40335,1.070618 0.143078,0.219353 0.237224,0.243671 0.3223,0.249168 z m -2.80129,-3.056248 c -0.756979,-3.068459 0.326359,-6.02706 2.018629,-8.447159 1.696055,-2.425512 4.095208,-4.452656 6.28751,-5.757072 l 1.170949,1.967987 c -1.963481,1.16827 -4.102629,2.986084 -5.581763,5.101377 -1.482919,2.120709 -2.211658,4.398762 -1.671982,6.586374 z m 8.296501,-14.198433 c 0.868866,-0.528599 1.793665,-0.959456 2.757448,-1.284748 l 0.732324,2.169746 c -0.803821,0.271303 -1.575046,0.630623 -2.299547,1.071392 z m 2.766338,-1.287708 c 0.907154,-0.297932 2.020958,-0.408024 3.083704,-0.276703 1.051128,0.129885 2.198971,0.516022 3.025236,1.359411 l -1.635795,1.602583 c -0.334244,-0.341169 -0.914193,-0.595854 -1.670275,-0.68928 -0.744465,-0.09199 -1.517292,-0.0079 -2.088326,0.179655 z m 6.306494,1.354959 c 0.03045,0.05844 0.05817,0.119099 0.08278,0.18178 l -2.131576,0.836947 c 0.0055,0.0141 0.01156,0.02721 0.01789,0.03935 l 2.030903,-1.058081 z" /></g></g></svg>